<?xml version="1.0"?>
<svg id="speech-bubble" xmlns="http://www.w3.org/2000/svg" viewBox="0 0 237.02 194.42">
  <g transform="translate(-1338.2 -1060.4)">
    <path id="rect7531" stroke-linejoin="round" d="m1451.1 1062.5c-41 0.1-80.9 3.5-93.6 10.8-26.4 15.3-19.2 109.7 0 120.8 3.7 2.1 12.5 3.9 24.4 5.3-0.6 9.4 0.3 22.9 7.8 33.1 17.3 23.3 51 20 51 20s-31-12-39.2-29.9c-3.1-6.9-2.9-14.6-1.4-21.6 54.1 3.9 140.3 2 155.7-6.9 22.2-12.8 23.8-107.1 0-120.8-12-6.9-59-10.9-104.7-10.8z" stroke="#000000" stroke-width="4.2733" fill="#ffffff"/>
  </g>
</svg>
